HIERARCHY
ROOT Hips
{
 OFFSET 0.000000 0.000000 0.000000
 CHANNELS 6 Xposition Yposition Zposition Yrotation Xrotation Zrotation
 JOINT Chest
 {
  OFFSET 0.000000 9.588913 -0.003946
  CHANNELS 3 Yrotation Xrotation Zrotation
  JOINT Chest2
  {
   OFFSET 0.000000 9.541882 0.008053
   CHANNELS 3 Yrotation Xrotation Zrotation
   JOINT Chest3
   {
    OFFSET 0.000000 9.501360 0.000000
    CHANNELS 3 Yrotation Xrotation Zrotation
    JOINT Chest4
    {
     OFFSET 0.000000 9.491660 0.000000
     CHANNELS 3 Yrotation Xrotation Zrotation
     JOINT Neck
     {
      OFFSET 0.000000 14.331917 0.000000
      CHANNELS 3 Yrotation Xrotation Zrotation
      JOINT Head
      {
       OFFSET 0.000000 8.884799 0.017034
       CHANNELS 3 Yrotation Xrotation Zrotation
       End Site
       {
        OFFSET 0.000000 16.896195 0.008993
       }
      }
     }
     JOINT RightCollar
     {
      OFFSET -2.923010 9.499495 0.000000
      CHANNELS 3 Yrotation Xrotation Zrotation
      JOINT RightShoulder
      {
       OFFSET -13.795216 0.000000 0.000000
       CHANNELS 3 Yrotation Xrotation Zrotation
       JOINT RightElbow
       {
        OFFSET -30.272209 0.000000 0.000000
        CHANNELS 3 Yrotation Xrotation Zrotation
        JOINT RightWrist
        {
         OFFSET -24.478199 0.000000 0.000000
         CHANNELS 3 Yrotation Xrotation Zrotation
         End Site
         {
          OFFSET -18.090752 0.000000 0.000000
         }
        }
       }
      }
     }
     JOINT LeftCollar
     {
      OFFSET 2.923010 9.499495 0.000000
      CHANNELS 3 Yrotation Xrotation Zrotation
      JOINT LeftShoulder
      {
       OFFSET 13.795216 0.000000 0.000000
       CHANNELS 3 Yrotation Xrotation Zrotation
       JOINT LeftElbow
       {
        OFFSET 30.272209 0.000000 0.000000
        CHANNELS 3 Yrotation Xrotation Zrotation
        JOINT LeftWrist
        {
         OFFSET 24.478199 0.000000 0.000000
         CHANNELS 3 Yrotation Xrotation Zrotation
         End Site
         {
          OFFSET 18.090752 0.000000 0.000000
         }
        }
       }
      }
     }
    }
   }
  }
 }
 JOINT RightHip
 {
  OFFSET -7.826875 0.019532 0.001973
  CHANNELS 3 Yrotation Xrotation Zrotation
  JOINT RightKnee
  {
   OFFSET 0.000000 -40.546152 -0.001885
   CHANNELS 3 Yrotation Xrotation Zrotation
   JOINT RightAnkle
   {
    OFFSET 0.000000 -39.417092 -0.003189
    CHANNELS 3 Yrotation Xrotation Zrotation
    JOINT RightToe
    {
     OFFSET 0.000000 -7.579396 17.243563
     CHANNELS 3 Yrotation Xrotation Zrotation
     End Site
     {
      OFFSET 0.000000 -1.500329 6.694466
     }
    }
   }
  }
 }
 JOINT LeftHip
 {
  OFFSET 7.826875 0.019532 0.001973
  CHANNELS 3 Yrotation Xrotation Zrotation
  JOINT LeftKnee
  {
   OFFSET 0.000000 -40.546152 -0.001885
   CHANNELS 3 Yrotation Xrotation Zrotation
   JOINT LeftAnkle
   {
    OFFSET 0.000000 -39.417092 -0.003189
    CHANNELS 3 Yrotation Xrotation Zrotation
    JOINT LeftToe
    {
     OFFSET 0.000000 -7.579396 17.243563
     CHANNELS 3 Yrotation Xrotation Zrotation
     End Site
     {
      OFFSET 0.000000 -1.500329 6.694466
     }
    }
   }
  }
 }
}
MOTION
Frames: 17
Frame Time: 0.008333
0.000000 87.345680 0.000000 0.000000 -5.767889 0.000000 0.000000 11.653876 0.000000 0.000000 -5.885988 0.000000 0.000000 -0.000000 0.000000 0.000000 -0.000000 0.000000 0.000000 12.528808 0.000000 0.000000 0.711711 0.000000 0.000000 -0.000000 0.000000 0.000000 -0.000000 0.000000 2.309063 -0.000000 0.000000 -2.309063 -0.000000 -0.000000 0.000000 -0.000000 0.000000 0.000000 0.000000 0.000000 -2.309063 0.000000 0.000000 2.309063 -0.000000 0.000000 0.000000 8.520374 0.000000 0.000000 1.905768 0.000000 -0.000000 -4.658254 0.000000 0.000000 -0.000000 0.000000 0.000000 8.520374 0.000000 0.000000 1.905768 0.000000 -0.000000 -4.658254 0.000000 0.000000 -0.000000 0.000000
-14.279408 89.152349 1.868916 -179.623424 -6.308396 -0.139509 -0.215522 2.097189 0.217572 -0.115055 1.198088 0.117137 -0.143444 1.497647 0.146054 -0.115055 1.198088 0.117137 1.889123 18.998996 -0.881957 2.203366 -5.645167 -1.365195 0.440328 0.670378 -1.007809 8.031429 -3.231388 89.568942 2.772638 10.460870 2.479688 -2.060729 -3.568516 -1.610105 1.568679 -1.462559 -0.187687 -9.565660 -2.516861 -89.341749 3.036295 4.562547 0.483271 0.331310 -4.312548 -1.491434 -0.291965 6.044564 2.001834 3.027347 4.118880 0.065771 2.367420 -4.003420 -2.003060 -0.004464 0.063909 -0.005480 1.359590 8.473403 -1.916228 1.377587 1.856892 0.554761 1.951427 -4.461155 1.519633 -0.004570 -0.018404 -0.020409
-14.263149 89.152891 1.874956 -179.621475 -6.299580 -0.130107 -0.221020 2.103757 0.217557 -0.117751 1.201679 0.115814 -0.146817 1.502135 0.144390 -0.117751 1.201679 0.115814 1.893818 18.993988 -0.893518 2.211003 -5.650422 -1.378537 0.445136 0.649705 -1.004498 8.021760 -3.223310 89.568539 2.776723 10.459178 2.484516 -2.056706 -3.571899 -1.609219 1.581200 -1.476695 -0.191691 -9.580387 -2.538080 -89.349823 3.014648 4.556129 0.471011 0.326517 -4.309887 -1.476157 -0.308140 6.059584 2.000725 3.027666 4.068114 0.068282 2.370463 -3.984567 -2.015884 -0.002312 0.066813 -0.004518 1.356181 8.457298 -1.915874 1.376646 1.860032 0.556863 1.951258 -4.455931 1.508810 -0.003078 -0.018756 -0.017511
-14.244305 89.153710 1.881625 -179.617356 -6.291342 -0.119900 -0.225585 2.110966 0.216707 -0.119810 1.205577 0.113948 -0.149396 1.507008 0.142049 -0.119810 1.205577 0.113948 1.897128 18.987913 -0.903425 2.216773 -5.656937 -1.389797 0.446760 0.626357 -0.996998 8.003140 -3.211460 89.569198 2.785107 10.457393 2.491382 -2.050679 -3.575037 -1.610394 1.590019 -1.491776 -0.192196 -9.586924 -2.558835 -89.359470 2.991184 4.552550 0.454910 0.320198 -4.310164 -1.460933 -0.322175 6.073396 2.000165 3.026176 4.020431 0.068645 2.379276 -3.966553 -2.027856 -0.000927 0.069203 -0.003767 1.353920 8.441021 -1.915012 1.375666 1.863170 0.559715 1.949944 -4.450218 1.495811 -0.001598 -0.019023 -0.014753
-14.223235 89.154826 1.888701 -179.613264 -6.283748 -0.111201 -0.228794 2.117006 0.214623 -0.121246 1.208987 0.112287 -0.151195 1.511271 0.139967 -0.121246 1.208987 0.112287 1.898887 18.982934 -0.911250 2.220418 -5.662308 -1.398492 0.449321 0.607149 -0.984079 7.973379 -3.198016 89.567348 2.796469 10.458620 2.501310 -2.041993 -3.574901 -1.611198 1.597011 -1.503207 -0.190474 -9.584894 -2.578910 -89.368394 2.966647 4.553864 0.434775 0.313254 -4.311247 -1.446434 -0.332599 6.087651 2.003765 3.025098 3.972516 0.067621 2.384817 -3.947184 -2.040591 -0.000896 0.070604 -0.003059 1.353280 8.423920 -1.910971 1.376237 1.868421 0.562418 1.946428 -4.445267 1.482010 -0.001058 -0.019326 -0.012841
-14.201191 89.156210 1.896102 -179.608061 -6.275914 -0.101003 -0.230972 2.120882 0.211101 -0.122083 1.211462 0.110538 -0.152247 1.514364 0.137776 -0.122083 1.211462 0.110538 1.899508 18.979121 -0.917630 2.222525 -5.666432 -1.405395 0.449347 0.593226 -0.968910 7.939978 -3.183305 89.564720 2.809525 10.463056 2.512339 -2.031641 -3.575579 -1.611593 1.599033 -1.509208 -0.188499 -9.578207 -2.597688 -89.376851 2.941099 4.558170 0.414223 0.304752 -4.314139 -1.433627 -0.341605 6.100634 2.010353 3.026629 3.927083 0.064849 2.373804 -3.929542 -2.054667 -0.001875 0.071819 -0.002697 1.348766 8.405017 -1.908068 1.378823 1.875671 0.564379 1.943180 -4.440010 1.469238 -0.001538 -0.020442 -0.012267
-14.179031 89.157809 1.903648 -179.598806 -6.267592 -0.087725 -0.232961 2.123383 0.207269 -0.122843 1.213207 0.107955 -0.153205 1.516545 0.134545 -0.122843 1.213207 0.107955 1.899663 18.975801 -0.921867 2.223643 -5.670060 -1.409917 0.443416 0.580457 -0.954217 7.911688 -3.166039 89.565347 2.822568 10.467681 2.522320 -2.023546 -3.577997 -1.613021 1.595763 -1.513181 -0.186914 -9.574390 -2.615830 -89.385231 2.915227 4.560885 0.394873 0.299330 -4.318327 -1.423042 -0.350220 6.110231 2.014191 3.029185 3.888002 0.060111 2.364049 -3.916215 -2.067378 -0.001203 0.073457 -0.002149 1.334437 8.383189 -1.910500 1.385685 1.886372 0.567689 1.941808 -4.435238 1.457496 -0.002500 -0.022356 -0.013059
-14.156523 89.159534 1.911246 -179.586231 -6.258115 -0.074664 -0.235263 2.124994 0.203979 -0.124102 1.214180 0.105012 -0.154788 1.517760 0.130861 -0.124102 1.214180 0.105012 1.899804 18.973427 -0.923697 2.224198 -5.672676 -1.411882 0.436292 0.567523 -0.940827 7.886033 -3.146189 89.571724 2.832352 10.476219 2.527517 -2.019106 -3.579201 -1.614600 1.595983 -1.517507 -0.185298 -9.578510 -2.633407 -89.392086 2.890961 4.559615 0.376443 0.298906 -4.321977 -1.415701 -0.355708 6.115526 2.017891 3.030276 3.855105 0.053753 2.361299 -3.905600 -2.079118 0.001180 0.074493 -0.000768 1.312425 8.358099 -1.915786 1.395659 1.900461 0.575479 1.941410 -4.432391 1.444985 -0.003429 -0.023965 -0.015107
-14.133328 89.161230 1.919264 -179.574282 -6.244316 -0.064581 -0.237169 2.124222 0.200952 -0.125319 1.213417 0.102799 -0.156317 1.516806 0.128091 -0.125319 1.213417 0.102799 1.900037 18.972956 -0.923628 2.224426 -5.673197 -1.411860 0.432255 0.557547 -0.929643 7.859499 -3.126696 89.581852 2.836742 10.490334 2.527531 -2.016471 -3.577098 -1.612446 1.602597 -1.519644 -0.183636 -9.590432 -2.647395 -89.395613 2.866713 4.556058 0.358787 0.299181 -4.324308 -1.411530 -0.356496 6.113009 2.028264 3.031287 3.828505 0.045400 2.349825 -3.896916 -2.091996 0.002849 0.074332 0.000949 1.290648 8.328335 -1.919462 1.402950 1.915047 0.587563 1.942400 -4.431168 1.430705 -0.004105 -0.024310 -0.017773
-14.109892 89.162805 1.927463 -179.564410 -6.227025 -0.055543 -0.237615 2.121048 0.197417 -0.125701 1.211126 0.100847 -0.156802 1.513942 0.125651 -0.125701 1.211126 0.100847 1.899857 18.974617 -0.921485 2.223751 -5.671386 -1.409550 0.429018 0.551329 -0.918799 7.836979 -3.108094 89.592724 2.837616 10.504105 2.525875 -2.015292 -3.571686 -1.606750 1.607720 -1.519738 -0.179618 -9.604420 -2.654923 -89.396449 2.839660 4.553696 0.340234 0.297851 -4.323628 -1.406833 -0.354497 6.104171 2.040952 3.031100 3.807013 0.036249 2.338929 -3.890496 -2.105109 0.003748 0.073960 0.002472 1.275218 8.295345 -1.920718 1.407664 1.929750 0.598454 1.942983 -4.431267 1.417365 -0.004861 -0.023936 -0.020296
-14.086709 89.164228 1.935145 -179.555365 -6.210172 -0.045656 -0.236571 2.117315 0.193642 -0.125224 1.208797 0.098560 -0.156214 1.511030 0.122794 -0.125224 1.208797 0.098560 1.898401 18.977798 -0.918186 2.221462 -5.667933 -1.405723 0.423867 0.545293 -0.907614 7.822417 -3.089422 89.604443 2.836445 10.514857 2.524694 -2.017651 -3.567161 -1.601109 1.609954 -1.520632 -0.173686 -9.617271 -2.657701 -89.396204 2.809711 4.553160 0.320399 0.296444 -4.320566 -1.399419 -0.352037 6.094841 2.050393 3.028857 3.787685 0.030120 2.335129 -3.885723 -2.118862 0.004497 0.073860 0.003439 1.266999 8.263408 -1.920252 1.412612 1.944699 0.605287 1.940011 -4.432826 1.405383 -0.005401 -0.023325 -0.021468
-14.063737 89.165437 1.942105 -179.546796 -6.194991 -0.036207 -0.235267 2.114203 0.190887 -0.124518 1.207120 0.096657 -0.155338 1.508933 0.120417 -0.124518 1.207120 0.096657 1.896504 18.981778 -0.915597 2.218875 -5.663585 -1.402554 0.418574 0.537346 -0.898096 7.814556 -3.071891 89.615643 2.833103 10.522991 2.525334 -2.022745 -3.565735 -1.595596 1.612665 -1.522993 -0.171418 -9.625279 -2.657243 -89.393990 2.777866 4.552523 0.300271 0.293981 -4.317731 -1.388757 -0.350320 6.085968 2.059208 3.027797 3.771687 0.026707 2.330513 -3.882951 -2.134575 0.004636 0.073554 0.004424 1.262943 8.234161 -1.917403 1.420573 1.959232 0.609442 1.932211 -4.436577 1.392605 -0.005299 -0.021898 -0.020641
-14.041147 89.166368 1.948408 -179.537819 -6.181344 -0.027288 -0.234821 2.112226 0.189046 -0.124285 1.205933 0.095283 -0.155051 1.507448 0.118702 -0.124285 1.205933 0.095283 1.895332 18.985576 -0.913880 2.217261 -5.659403 -1.400476 0.415299 0.528604 -0.890362 7.811836 -3.056036 89.626056 2.827737 10.527881 2.525459 -2.027564 -3.566364 -1.588647 1.616702 -1.527736 -0.172701 -9.623734 -2.653839 -89.391115 2.746758 4.553218 0.279596 0.289309 -4.318240 -1.375520 -0.350852 6.076290 2.068892 3.028557 3.761687 0.023169 2.324366 -3.883607 -2.152413 0.004258 0.073095 0.006568 1.258608 8.207086 -1.913639 1.432736 1.973660 0.612720 1.920967 -4.442352 1.378942 -0.005022 -0.019965 -0.018809
-14.019278 89.166989 1.954111 -179.528484 -6.169261 -0.017701 -0.234475 2.111473 0.186860 -0.124204 1.205173 0.093956 -0.154954 1.506498 0.117043 -0.124204 1.205173 0.093956 1.894135 18.988087 -0.912207 2.215618 -5.656660 -1.398434 0.413441 0.518572 -0.881983 7.812260 -3.039310 89.635481 2.822601 10.530144 2.524057 -2.032700 -3.566639 -1.580311 1.621523 -1.533921 -0.171458 -9.612267 -2.651393 -89.392772 2.718751 4.555872 0.259388 0.284245 -4.324527 -1.361674 -0.352613 6.066193 2.076955 3.030329 3.756750 0.020184 2.319788 -3.887889 -2.170724 0.003873 0.073202 0.008741 1.251930 8.181051 -1.911525 1.446671 1.989850 0.616838 1.909678 -4.449023 1.364815 -0.004960 -0.018830 -0.017087
-13.998302 89.167301 1.959219 -179.519248 -6.159171 -0.006908 -0.233371 2.111332 0.184039 -0.123686 1.204855 0.092562 -0.154312 1.506100 0.115302 -0.123686 1.204855 0.092562 1.892444 18.989158 -0.910782 2.213496 -5.655536 -1.396535 0.410757 0.506334 -0.873848 7.813863 -3.018838 89.644427 2.820716 10.532008 2.523362 -2.038638 -3.567098 -1.572143 1.625009 -1.539365 -0.167479 -9.592281 -2.648730 -89.399232 2.691464 4.555929 0.241138 0.278689 -4.331524 -1.350413 -0.355082 6.057168 2.081547 3.033370 3.754436 0.018488 2.319871 -3.894686 -2.188125 0.003427 0.074107 0.010177 1.242114 8.156043 -1.912083 1.462588 2.008380 0.622159 1.899223 -4.455728 1.350541 -0.005168 -0.018885 -0.015741
-13.978080 89.167332 1.963770 -179.508491 -6.151356 0.003951 -0.232507 2.111690 0.181410 -0.123242 1.205082 0.091339 -0.153761 1.506382 0.113775 -0.123242 1.205082 0.091339 1.892085 18.988534 -0.909844 2.212891 -5.656262 -1.395452 0.408294 0.494129 -0.869121 7.813827 -2.998685 89.657175 2.819231 10.537124 2.523279 -2.042472 -3.569803 -1.566845 1.630888 -1.545159 -0.164551 -9.571388 -2.641624 -89.406424 2.661636 4.548366 0.223317 0.273822 -4.332602 -1.342805 -0.358608 6.050728 2.085956 3.035116 3.752618 0.016586 2.319538 -3.902427 -2.206266 0.002495 0.075134 0.011967 1.229665 8.131673 -1.913783 1.478755 2.030430 0.628069 1.889980 -4.463796 1.336428 -0.005244 -0.019143 -0.014675
-13.958469 89.167144 1.967636 -179.494224 -6.147058 0.014096 -0.233067 2.113106 0.179431 -0.123566 1.206029 0.090551 -0.154168 1.507566 0.112789 -0.123566 1.206029 0.090551 1.893719 18.985778 -0.909597 2.214551 -5.659304 -1.395555 0.407768 0.484389 -0.867475 7.809159 -2.981597 89.674292 2.816253 10.547504 2.521974 -2.043157 -3.571599 -1.565786 1.641138 -1.550202 -0.163619 -9.554852 -2.633215 -89.412636 2.631147 4.532778 0.204429 0.270080 -4.330414 -1.336057 -0.362814 6.049485 2.092833 3.034336 3.749240 0.012941 2.312530 -3.910590 -2.224136 0.001209 0.076237 0.013236 1.215963 8.108550 -1.915136 1.491726 2.057433 0.633548 1.882674 -4.474564 1.323561 -0.005157 -0.019106 -0.014256
